<mxfile host="app.diagrams.net" modified="2020-10-20T03:02:17.876Z" agent="5.0 (Macintosh; Intel Mac OS X 10_15_6) AppleWebKit/605.1.15 (KHTML, like Gecko) Version/14.0 Safari/605.1.15" etag="s42rt8JiT3jNnTTOUU49" version="13.8.0" type="github">
  <diagram id="C5RBs43oDa-KdzZeNtuy" name="Page-1">
    <mxGraphModel dx="946" dy="662" grid="1" gridSize="10" guides="1" tooltips="1" connect="1" arrows="1" fold="1" page="1" pageScale="1" pageWidth="827" pageHeight="1169" math="0" shadow="0">
      <root>
        <mxCell id="WIyWlLk6GJQsqaUBKTNV-0" />
        <mxCell id="WIyWlLk6GJQsqaUBKTNV-1" parent="WIyWlLk6GJQsqaUBKTNV-0" />
        <mxCell id="1ZM4-6F-wcKnOlTKeMzP-11" value="" style="edgeStyle=orthogonalEdgeStyle;rounded=0;orthogonalLoop=1;jettySize=auto;html=1;" parent="WIyWlLk6GJQsqaUBKTNV-1" source="1ZM4-6F-wcKnOlTKeMzP-0" target="1ZM4-6F-wcKnOlTKeMzP-10" edge="1">
          <mxGeometry relative="1" as="geometry" />
        </mxCell>
        <mxCell id="1ZM4-6F-wcKnOlTKeMzP-0" value="BombilloRojoOn" style="rounded=1;whiteSpace=wrap;html=1;" parent="WIyWlLk6GJQsqaUBKTNV-1" vertex="1">
          <mxGeometry x="352" y="320" width="120" height="60" as="geometry" />
        </mxCell>
        <mxCell id="7kQ0YOoyYikiiQAxif0X-2" style="edgeStyle=orthogonalEdgeStyle;rounded=0;orthogonalLoop=1;jettySize=auto;html=1;" parent="WIyWlLk6GJQsqaUBKTNV-1" source="1ZM4-6F-wcKnOlTKeMzP-1" target="1ZM4-6F-wcKnOlTKeMzP-39" edge="1">
          <mxGeometry relative="1" as="geometry" />
        </mxCell>
        <mxCell id="1ZM4-6F-wcKnOlTKeMzP-1" value="Loop" style="rounded=1;whiteSpace=wrap;html=1;" parent="WIyWlLk6GJQsqaUBKTNV-1" vertex="1">
          <mxGeometry x="150" y="160" width="120" height="60" as="geometry" />
        </mxCell>
        <mxCell id="1ZM4-6F-wcKnOlTKeMzP-4" value="" style="edgeStyle=orthogonalEdgeStyle;rounded=0;orthogonalLoop=1;jettySize=auto;html=1;" parent="WIyWlLk6GJQsqaUBKTNV-1" source="1ZM4-6F-wcKnOlTKeMzP-2" target="1ZM4-6F-wcKnOlTKeMzP-3" edge="1">
          <mxGeometry relative="1" as="geometry" />
        </mxCell>
        <mxCell id="1ZM4-6F-wcKnOlTKeMzP-2" value="Setup" style="rounded=1;whiteSpace=wrap;html=1;" parent="WIyWlLk6GJQsqaUBKTNV-1" vertex="1">
          <mxGeometry x="150" y="60" width="120" height="60" as="geometry" />
        </mxCell>
        <mxCell id="1ZM4-6F-wcKnOlTKeMzP-8" style="edgeStyle=orthogonalEdgeStyle;rounded=0;orthogonalLoop=1;jettySize=auto;html=1;" parent="WIyWlLk6GJQsqaUBKTNV-1" source="1ZM4-6F-wcKnOlTKeMzP-3" target="1ZM4-6F-wcKnOlTKeMzP-1" edge="1">
          <mxGeometry relative="1" as="geometry">
            <Array as="points">
              <mxPoint x="400" y="190" />
            </Array>
          </mxGeometry>
        </mxCell>
        <mxCell id="1ZM4-6F-wcKnOlTKeMzP-3" value="Configura 2 leds 1 Pulsar" style="whiteSpace=wrap;html=1;rounded=1;" parent="WIyWlLk6GJQsqaUBKTNV-1" vertex="1">
          <mxGeometry x="350" y="60" width="120" height="60" as="geometry" />
        </mxCell>
        <mxCell id="1ZM4-6F-wcKnOlTKeMzP-10" value="BombilloVerdeOn" style="whiteSpace=wrap;html=1;rounded=1;" parent="WIyWlLk6GJQsqaUBKTNV-1" vertex="1">
          <mxGeometry x="552" y="320" width="120" height="60" as="geometry" />
        </mxCell>
        <mxCell id="1ZM4-6F-wcKnOlTKeMzP-20" value="" style="edgeStyle=orthogonalEdgeStyle;rounded=0;orthogonalLoop=1;jettySize=auto;html=1;" parent="WIyWlLk6GJQsqaUBKTNV-1" source="1ZM4-6F-wcKnOlTKeMzP-17" target="1ZM4-6F-wcKnOlTKeMzP-19" edge="1">
          <mxGeometry relative="1" as="geometry" />
        </mxCell>
        <mxCell id="1ZM4-6F-wcKnOlTKeMzP-17" value="PresionaPulsa1" style="whiteSpace=wrap;html=1;rounded=1;" parent="WIyWlLk6GJQsqaUBKTNV-1" vertex="1">
          <mxGeometry x="154" y="390" width="120" height="60" as="geometry" />
        </mxCell>
        <mxCell id="1ZM4-6F-wcKnOlTKeMzP-22" value="" style="edgeStyle=orthogonalEdgeStyle;rounded=0;orthogonalLoop=1;jettySize=auto;html=1;" parent="WIyWlLk6GJQsqaUBKTNV-1" source="1ZM4-6F-wcKnOlTKeMzP-19" target="1ZM4-6F-wcKnOlTKeMzP-21" edge="1">
          <mxGeometry relative="1" as="geometry" />
        </mxCell>
        <mxCell id="1ZM4-6F-wcKnOlTKeMzP-19" value="BombilloRojoOn" style="whiteSpace=wrap;html=1;rounded=1;" parent="WIyWlLk6GJQsqaUBKTNV-1" vertex="1">
          <mxGeometry x="354" y="390" width="120" height="60" as="geometry" />
        </mxCell>
        <mxCell id="1ZM4-6F-wcKnOlTKeMzP-21" value="BombilloVerdeOff" style="whiteSpace=wrap;html=1;rounded=1;" parent="WIyWlLk6GJQsqaUBKTNV-1" vertex="1">
          <mxGeometry x="552" y="390" width="120" height="60" as="geometry" />
        </mxCell>
        <mxCell id="7kQ0YOoyYikiiQAxif0X-6" style="edgeStyle=orthogonalEdgeStyle;rounded=0;orthogonalLoop=1;jettySize=auto;html=1;entryX=0;entryY=0.617;entryDx=0;entryDy=0;entryPerimeter=0;" parent="WIyWlLk6GJQsqaUBKTNV-1" source="1ZM4-6F-wcKnOlTKeMzP-39" target="7kQ0YOoyYikiiQAxif0X-4" edge="1">
          <mxGeometry relative="1" as="geometry">
            <Array as="points">
              <mxPoint x="130" y="280" />
              <mxPoint x="130" y="357" />
            </Array>
          </mxGeometry>
        </mxCell>
        <mxCell id="7kQ0YOoyYikiiQAxif0X-7" style="edgeStyle=orthogonalEdgeStyle;rounded=0;orthogonalLoop=1;jettySize=auto;html=1;" parent="WIyWlLk6GJQsqaUBKTNV-1" source="1ZM4-6F-wcKnOlTKeMzP-39" target="1ZM4-6F-wcKnOlTKeMzP-17" edge="1">
          <mxGeometry relative="1" as="geometry">
            <Array as="points">
              <mxPoint x="110" y="280" />
              <mxPoint x="110" y="420" />
            </Array>
          </mxGeometry>
        </mxCell>
        <mxCell id="7kQ0YOoyYikiiQAxif0X-10" style="edgeStyle=orthogonalEdgeStyle;rounded=0;orthogonalLoop=1;jettySize=auto;html=1;" parent="WIyWlLk6GJQsqaUBKTNV-1" source="1ZM4-6F-wcKnOlTKeMzP-39" target="1ZM4-6F-wcKnOlTKeMzP-39" edge="1">
          <mxGeometry relative="1" as="geometry">
            <mxPoint x="691" y="590" as="targetPoint" />
          </mxGeometry>
        </mxCell>
        <mxCell id="1ZM4-6F-wcKnOlTKeMzP-39" value="Condiciones" style="whiteSpace=wrap;html=1;rounded=1;" parent="WIyWlLk6GJQsqaUBKTNV-1" vertex="1">
          <mxGeometry x="150" y="250" width="120" height="60" as="geometry" />
        </mxCell>
        <mxCell id="7kQ0YOoyYikiiQAxif0X-5" style="edgeStyle=orthogonalEdgeStyle;rounded=0;orthogonalLoop=1;jettySize=auto;html=1;" parent="WIyWlLk6GJQsqaUBKTNV-1" source="7kQ0YOoyYikiiQAxif0X-4" target="1ZM4-6F-wcKnOlTKeMzP-0" edge="1">
          <mxGeometry relative="1" as="geometry" />
        </mxCell>
        <mxCell id="7kQ0YOoyYikiiQAxif0X-4" value="NoUsoPulsador" style="whiteSpace=wrap;html=1;rounded=1;" parent="WIyWlLk6GJQsqaUBKTNV-1" vertex="1">
          <mxGeometry x="152" y="320" width="120" height="60" as="geometry" />
        </mxCell>
      </root>
    </mxGraphModel>
  </diagram>
</mxfile>
